<svg width="301" height="48" viewBox="0 0 301 48" fill="none" xmlns="http://www.w3.org/2000/svg">
<path d="M3.4375 18.8125C3.07292 18.6302 2.79948 18.4479 2.61719 18.2656C2.46094 18.0833 2.38281 17.8229 2.38281 17.4844C2.38281 17.3021 2.40885 17.1458 2.46094 17.0156C2.53906 16.8854 2.61719 16.7682 2.69531 16.6641C2.79948 16.5339 2.89062 16.4036 2.96875 16.2734C3.04688 16.1432 3.08594 15.987 3.08594 15.8047C3.08594 15.4922 3.08594 15.1276 3.08594 14.7109C3.11198 14.2943 3.09896 13.8776 3.04688 13.4609C2.99479 13.0182 2.89062 12.6146 2.73438 12.25C2.60417 11.8594 2.36979 11.5469 2.03125 11.3125C2.10938 11.2865 2.22656 11.1953 2.38281 11.0391C2.5651 10.8568 2.68229 10.7396 2.73438 10.6875V10.6094C2.73438 10.6094 2.73438 10.5964 2.73438 10.5703C2.73438 10.5443 2.73438 10.5182 2.73438 10.4922C2.73438 10.1536 2.64323 9.91927 2.46094 9.78906C2.30469 9.65885 2.10938 9.56771 1.875 9.51562C1.66667 9.46354 1.44531 9.41146 1.21094 9.35938C0.976562 9.30729 0.807292 9.17708 0.703125 8.96875C0.989583 8.57812 1.45833 8.23958 2.10938 7.95312C2.76042 7.66667 3.48958 7.41927 4.29688 7.21094C5.13021 6.97656 5.98958 6.78125 6.875 6.625C7.78646 6.46875 8.67188 6.33854 9.53125 6.23438C10.3906 6.10417 11.1589 6.02604 11.8359 6C12.513 5.94792 13.0469 5.92188 13.4375 5.92188H14.3359C14.5703 5.92188 14.8698 5.94792 15.2344 6C15.625 6.02604 16.0026 6.0651 16.3672 6.11719C16.7318 6.14323 17.0443 6.16927 17.3047 6.19531C17.5911 6.22135 17.7344 6.23438 17.7344 6.23438L18.0859 6.54688L17.7344 6.9375C15.4688 7.01562 13.2812 7.17188 11.1719 7.40625C9.08854 7.61458 6.95312 8.01823 4.76562 8.61719C4.73958 8.66927 4.71354 8.77344 4.6875 8.92969C4.66146 9.08594 4.6224 9.25521 4.57031 9.4375C4.54427 9.61979 4.51823 9.80208 4.49219 9.98438C4.46615 10.1406 4.45312 10.2448 4.45312 10.2969C4.45312 10.349 4.45312 10.4401 4.45312 10.5703C4.45312 10.6745 4.45312 10.7917 4.45312 10.9219C4.47917 11.0521 4.49219 11.1693 4.49219 11.2734C4.49219 11.3776 4.49219 11.4688 4.49219 11.5469C6.6276 11.5469 8.73698 11.4557 10.8203 11.2734C12.9036 11.0651 15.013 10.9609 17.1484 10.9609C17.3047 10.9609 17.4609 10.9609 17.6172 10.9609C17.7734 10.9609 17.9036 10.987 18.0078 11.0391C18.138 11.0651 18.2422 11.1432 18.3203 11.2734C18.3984 11.3776 18.4375 11.5339 18.4375 11.7422C18.4375 11.8724 18.112 12.0547 17.4609 12.2891C16.8359 12.5234 16.0417 12.7969 15.0781 13.1094C14.1146 13.3958 13.0599 13.7214 11.9141 14.0859C10.7943 14.4505 9.7526 14.8281 8.78906 15.2188C7.82552 15.6094 7.01823 16.013 6.36719 16.4297C5.74219 16.8464 5.42969 17.25 5.42969 17.6406V17.7578C5.42969 17.7578 5.42969 17.7708 5.42969 17.7969C5.45573 17.8229 5.52083 17.888 5.625 17.9922C5.72917 18.0703 5.78125 18.1354 5.78125 18.1875C5.78125 18.2135 5.79427 18.2266 5.82031 18.2266V18.3047C5.82031 18.3307 5.83333 18.3438 5.85938 18.3438C5.85938 18.3438 5.84635 18.3568 5.82031 18.3828C5.82031 18.3828 5.82031 18.3958 5.82031 18.4219C5.79427 18.4479 5.78125 18.474 5.78125 18.5C5.78125 18.526 5.72917 18.5911 5.625 18.6953C5.52083 18.7734 5.45573 18.8125 5.42969 18.8125C5.40365 18.8906 5.33854 19.0208 5.23438 19.2031C5.15625 19.3854 5.11719 19.4896 5.11719 19.5156C5.11719 20.375 5.26042 21.1172 5.54688 21.7422C5.85938 22.3411 6.26302 22.8359 6.75781 23.2266C7.2526 23.5911 7.82552 23.8646 8.47656 24.0469C9.15365 24.2292 9.85677 24.3203 10.5859 24.3203C11.6016 24.3203 12.526 24.1771 13.3594 23.8906C14.1927 23.6042 14.974 23.2135 15.7031 22.7188C16.4323 22.224 17.1224 21.651 17.7734 21C18.4505 20.3229 19.1146 19.5938 19.7656 18.8125C19.7917 18.8125 19.8307 18.7474 19.8828 18.6172C19.9609 18.487 20.0391 18.3568 20.1172 18.2266C20.1953 18.0703 20.2604 17.9271 20.3125 17.7969C20.3906 17.6406 20.4297 17.5365 20.4297 17.4844C20.4297 17.4583 20.4297 17.4062 20.4297 17.3281C20.4557 17.224 20.4688 17.1458 20.4688 17.0938C20.4688 16.9375 20.4167 16.8203 20.3125 16.7422C20.2344 16.638 20.1302 16.5599 20 16.5078C19.8698 16.4557 19.7266 16.4297 19.5703 16.4297C19.4401 16.4036 19.2969 16.3906 19.1406 16.3906C19.1406 16.026 19.3099 15.7786 19.6484 15.6484C19.987 15.5182 20.3255 15.4531 20.6641 15.4531C21.0547 15.4531 21.3411 15.5833 21.5234 15.8438C21.7318 16.1042 21.8359 16.4297 21.8359 16.8203C21.8359 17.5495 21.6406 18.2917 21.25 19.0469C20.8594 19.776 20.3516 20.4922 19.7266 21.1953C19.1016 21.8724 18.3724 22.5104 17.5391 23.1094C16.7318 23.6823 15.8984 24.1901 15.0391 24.6328C14.1797 25.0495 13.3333 25.388 12.5 25.6484C11.6667 25.9089 10.9115 26.0391 10.2344 26.0391C9.08854 26.0391 8.13802 25.8568 7.38281 25.4922C6.6276 25.1016 5.98958 24.5807 5.46875 23.9297C4.94792 23.2526 4.53125 22.4844 4.21875 21.625C3.93229 20.7396 3.67188 19.8021 3.4375 18.8125ZM4.375 12.25C4.375 12.7969 4.40104 13.2656 4.45312 13.6562C4.47917 14.0208 4.50521 14.3464 4.53125 14.6328C4.58333 14.9193 4.66146 15.0625 4.76562 15.0625H5.11719C5.14323 15.0625 5.3125 15.0104 5.625 14.9062C5.9375 14.776 6.30208 14.6198 6.71875 14.4375C7.16146 14.2552 7.60417 14.0729 8.04688 13.8906C8.51562 13.6823 8.89323 13.526 9.17969 13.4219C9.25781 13.3958 9.34896 13.3438 9.45312 13.2656C9.58333 13.1875 9.72656 13.1224 9.88281 13.0703C10.0391 12.9922 10.1693 12.9141 10.2734 12.8359C10.4036 12.7578 10.5078 12.7188 10.5859 12.7188C10.1172 12.5885 9.60938 12.4974 9.0625 12.4453C8.51562 12.3672 7.95573 12.3151 7.38281 12.2891C6.83594 12.263 6.28906 12.25 5.74219 12.25C5.22135 12.25 4.76562 12.25 4.375 12.25ZM23.5156 7.95312C23.5156 7.77083 23.5417 7.54948 23.5938 7.28906C23.6458 7.0026 23.724 6.72917 23.8281 6.46875C23.9583 6.20833 24.1016 5.98698 24.2578 5.80469C24.4141 5.6224 24.6094 5.53125 24.8438 5.53125C25 5.53125 25.1302 5.54427 25.2344 5.57031C25.3646 5.59635 25.4688 5.71354 25.5469 5.92188C25.3906 7.06771 25.3516 8.13542 25.4297 9.125C25.5078 10.1146 25.6641 11.0911 25.8984 12.0547C26.1589 12.9922 26.4583 13.9297 26.7969 14.8672C27.1615 15.8047 27.5391 16.7812 27.9297 17.7969C27.9557 17.8229 27.9688 17.888 27.9688 17.9922C27.9688 18.0703 27.9557 18.1354 27.9297 18.1875C27.9818 18.2917 28.0859 18.5 28.2422 18.8125C28.3984 19.099 28.5677 19.4115 28.75 19.75C28.9323 20.0625 29.1016 20.362 29.2578 20.6484C29.4401 20.9089 29.5703 21.1042 29.6484 21.2344C29.7786 21.4688 29.9219 21.7552 30.0781 22.0938C30.2604 22.4062 30.4557 22.7057 30.6641 22.9922C30.8724 23.2526 31.1068 23.487 31.3672 23.6953C31.6276 23.8776 31.9141 23.9688 32.2266 23.9688C32.5651 23.9688 32.8646 23.8255 33.125 23.5391C33.4115 23.2526 33.6589 22.901 33.8672 22.4844C34.0755 22.0677 34.2448 21.651 34.375 21.2344C34.5312 20.7917 34.6615 20.4531 34.7656 20.2188C35.1823 19.0469 35.5469 17.9141 35.8594 16.8203C36.1719 15.7266 36.4453 14.6328 36.6797 13.5391C36.9141 12.4193 37.1224 11.2865 37.3047 10.1406C37.487 8.99479 37.6562 7.79688 37.8125 6.54688L38.1641 6.23438C38.5026 6.39062 38.6979 6.53385 38.75 6.66406C38.8021 6.79427 38.8281 6.97656 38.8281 7.21094V7.5625C38.8021 7.82292 38.737 8.29167 38.6328 8.96875C38.5547 9.64583 38.4635 10.362 38.3594 11.1172C38.2552 11.8724 38.138 12.6016 38.0078 13.3047C37.9036 14.0078 37.8385 14.4896 37.8125 14.75C37.7604 15.0365 37.6562 15.5182 37.5 16.1953C37.3698 16.8724 37.1875 17.6406 36.9531 18.5C36.7188 19.3333 36.4453 20.1927 36.1328 21.0781C35.8203 21.9635 35.4557 22.7708 35.0391 23.5C34.6484 24.2292 34.2188 24.8411 33.75 25.3359C33.2812 25.8047 32.7734 26.0391 32.2266 26.0391C31.7057 26.0391 31.1719 25.7786 30.625 25.2578C30.0781 24.737 29.5443 24.0729 29.0234 23.2656C28.5026 22.4323 27.9818 21.5208 27.4609 20.5312C26.9661 19.5417 26.5234 18.5651 26.1328 17.6016C25.7422 16.638 25.4036 15.7526 25.1172 14.9453C24.8307 14.138 24.6224 13.513 24.4922 13.0703C24.4661 12.9141 24.401 12.6146 24.2969 12.1719C24.2188 11.7292 24.1276 11.2604 24.0234 10.7656C23.9193 10.2448 23.8151 9.75 23.7109 9.28125C23.6068 8.8125 23.5417 8.47396 23.5156 8.26562V7.95312ZM43.2812 18.8125C42.9167 18.6302 42.6432 18.4479 42.4609 18.2656C42.3047 18.0833 42.2266 17.8229 42.2266 17.4844C42.2266 17.3021 42.2526 17.1458 42.3047 17.0156C42.3828 16.8854 42.4609 16.7682 42.5391 16.6641C42.6432 16.5339 42.7344 16.4036 42.8125 16.2734C42.8906 16.1432 42.9297 15.987 42.9297 15.8047C42.9297 15.4922 42.9297 15.1276 42.9297 14.7109C42.9557 14.2943 42.9427 13.8776 42.8906 13.4609C42.8385 13.0182 42.7344 12.6146 42.5781 12.25C42.4479 11.8594 42.2135 11.5469 41.875 11.3125C41.9531 11.2865 42.0703 11.1953 42.2266 11.0391C42.4089 10.8568 42.526 10.7396 42.5781 10.6875V10.6094C42.5781 10.6094 42.5781 10.5964 42.5781 10.5703C42.5781 10.5443 42.5781 10.5182 42.5781 10.4922C42.5781 10.1536 42.487 9.91927 42.3047 9.78906C42.1484 9.65885 41.9531 9.56771 41.7188 9.51562C41.5104 9.46354 41.2891 9.41146 41.0547 9.35938C40.8203 9.30729 40.651 9.17708 40.5469 8.96875C40.8333 8.57812 41.3021 8.23958 41.9531 7.95312C42.6042 7.66667 43.3333 7.41927 44.1406 7.21094C44.974 6.97656 45.8333 6.78125 46.7188 6.625C47.6302 6.46875 48.5156 6.33854 49.375 6.23438C50.2344 6.10417 51.0026 6.02604 51.6797 6C52.3568 5.94792 52.8906 5.92188 53.2812 5.92188H54.1797C54.4141 5.92188 54.7135 5.94792 55.0781 6C55.4688 6.02604 55.8464 6.0651 56.2109 6.11719C56.5755 6.14323 56.888 6.16927 57.1484 6.19531C57.4349 6.22135 57.5781 6.23438 57.5781 6.23438L57.9297 6.54688L57.5781 6.9375C55.3125 7.01562 53.125 7.17188 51.0156 7.40625C48.9323 7.61458 46.7969 8.01823 44.6094 8.61719C44.5833 8.66927 44.5573 8.77344 44.5312 8.92969C44.5052 9.08594 44.4661 9.25521 44.4141 9.4375C44.388 9.61979 44.362 9.80208 44.3359 9.98438C44.3099 10.1406 44.2969 10.2448 44.2969 10.2969C44.2969 10.349 44.2969 10.4401 44.2969 10.5703C44.2969 10.6745 44.2969 10.7917 44.2969 10.9219C44.3229 11.0521 44.3359 11.1693 44.3359 11.2734C44.3359 11.3776 44.3359 11.4688 44.3359 11.5469C46.4714 11.5469 48.5807 11.4557 50.6641 11.2734C52.7474 11.0651 54.8568 10.9609 56.9922 10.9609C57.1484 10.9609 57.3047 10.9609 57.4609 10.9609C57.6172 10.9609 57.7474 10.987 57.8516 11.0391C57.9818 11.0651 58.0859 11.1432 58.1641 11.2734C58.2422 11.3776 58.2812 11.5339 58.2812 11.7422C58.2812 11.8724 57.9557 12.0547 57.3047 12.2891C56.6797 12.5234 55.8854 12.7969 54.9219 13.1094C53.9583 13.3958 52.9036 13.7214 51.7578 14.0859C50.638 14.4505 49.5964 14.8281 48.6328 15.2188C47.6693 15.6094 46.862 16.013 46.2109 16.4297C45.5859 16.8464 45.2734 17.25 45.2734 17.6406V17.7578C45.2734 17.7578 45.2734 17.7708 45.2734 17.7969C45.2995 17.8229 45.3646 17.888 45.4688 17.9922C45.5729 18.0703 45.625 18.1354 45.625 18.1875C45.625 18.2135 45.638 18.2266 45.6641 18.2266V18.3047C45.6641 18.3307 45.6771 18.3438 45.7031 18.3438C45.7031 18.3438 45.6901 18.3568 45.6641 18.3828C45.6641 18.3828 45.6641 18.3958 45.6641 18.4219C45.638 18.4479 45.625 18.474 45.625 18.5C45.625 18.526 45.5729 18.5911 45.4688 18.6953C45.3646 18.7734 45.2995 18.8125 45.2734 18.8125C45.2474 18.8906 45.1823 19.0208 45.0781 19.2031C45 19.3854 44.9609 19.4896 44.9609 19.5156C44.9609 20.375 45.1042 21.1172 45.3906 21.7422C45.7031 22.3411 46.1068 22.8359 46.6016 23.2266C47.0964 23.5911 47.6693 23.8646 48.3203 24.0469C48.9974 24.2292 49.7005 24.3203 50.4297 24.3203C51.4453 24.3203 52.3698 24.1771 53.2031 23.8906C54.0365 23.6042 54.8177 23.2135 55.5469 22.7188C56.276 22.224 56.9661 21.651 57.6172 21C58.2943 20.3229 58.9583 19.5938 59.6094 18.8125C59.6354 18.8125 59.6745 18.7474 59.7266 18.6172C59.8047 18.487 59.8828 18.3568 59.9609 18.2266C60.0391 18.0703 60.1042 17.9271 60.1562 17.7969C60.2344 17.6406 60.2734 17.5365 60.2734 17.4844C60.2734 17.4583 60.2734 17.4062 60.2734 17.3281C60.2995 17.224 60.3125 17.1458 60.3125 17.0938C60.3125 16.9375 60.2604 16.8203 60.1562 16.7422C60.0781 16.638 59.974 16.5599 59.8438 16.5078C59.7135 16.4557 59.5703 16.4297 59.4141 16.4297C59.2839 16.4036 59.1406 16.3906 58.9844 16.3906C58.9844 16.026 59.1536 15.7786 59.4922 15.6484C59.8307 15.5182 60.1693 15.4531 60.5078 15.4531C60.8984 15.4531 61.1849 15.5833 61.3672 15.8438C61.5755 16.1042 61.6797 16.4297 61.6797 16.8203C61.6797 17.5495 61.4844 18.2917 61.0938 19.0469C60.7031 19.776 60.1953 20.4922 59.5703 21.1953C58.9453 21.8724 58.2161 22.5104 57.3828 23.1094C56.5755 23.6823 55.7422 24.1901 54.8828 24.6328C54.0234 25.0495 53.1771 25.388 52.3438 25.6484C51.5104 25.9089 50.7552 26.0391 50.0781 26.0391C48.9323 26.0391 47.9818 25.8568 47.2266 25.4922C46.4714 25.1016 45.8333 24.5807 45.3125 23.9297C44.7917 23.2526 44.375 22.4844 44.0625 21.625C43.776 20.7396 43.5156 19.8021 43.2812 18.8125ZM44.2188 12.25C44.2188 12.7969 44.2448 13.2656 44.2969 13.6562C44.3229 14.0208 44.349 14.3464 44.375 14.6328C44.4271 14.9193 44.5052 15.0625 44.6094 15.0625H44.9609C44.987 15.0625 45.1562 15.0104 45.4688 14.9062C45.7812 14.776 46.1458 14.6198 46.5625 14.4375C47.0052 14.2552 47.4479 14.0729 47.8906 13.8906C48.3594 13.6823 48.737 13.526 49.0234 13.4219C49.1016 13.3958 49.1927 13.3438 49.2969 13.2656C49.4271 13.1875 49.5703 13.1224 49.7266 13.0703C49.8828 12.9922 50.013 12.9141 50.1172 12.8359C50.2474 12.7578 50.3516 12.7188 50.4297 12.7188C49.9609 12.5885 49.4531 12.4974 48.9062 12.4453C48.3594 12.3672 47.7995 12.3151 47.2266 12.2891C46.6797 12.263 46.1328 12.25 45.5859 12.25C45.0651 12.25 44.6094 12.25 44.2188 12.25ZM67.1094 10.6875C67.1094 10.6875 67.0703 10.9089 66.9922 11.3516C66.9401 11.7943 66.875 12.3281 66.7969 12.9531C66.7448 13.5781 66.6797 14.2161 66.6016 14.8672C66.5234 15.4922 66.4583 16.026 66.4062 16.4688V16.8203C66.3542 17.0547 66.276 17.4844 66.1719 18.1094C66.0938 18.7083 66.0026 19.3594 65.8984 20.0625C65.7943 20.7396 65.6901 21.3906 65.5859 22.0156C65.4818 22.6146 65.4167 23.0312 65.3906 23.2656C65.3125 23.5781 65.1562 23.8385 64.9219 24.0469C64.7135 24.2292 64.4531 24.3203 64.1406 24.3203C63.9844 24.3203 63.8672 24.2682 63.7891 24.1641C63.737 24.0339 63.6979 23.8776 63.6719 23.6953C63.6458 23.513 63.6328 23.3438 63.6328 23.1875C63.6328 23.0052 63.6328 22.875 63.6328 22.7969C63.6328 21.3906 63.6979 19.9323 63.8281 18.4219C63.9583 16.8854 64.1406 15.349 64.375 13.8125C64.6094 12.276 64.8958 10.7526 65.2344 9.24219C65.5729 7.73177 65.9635 6.27344 66.4062 4.86719C66.4323 4.73698 66.4844 4.64583 66.5625 4.59375C66.6667 4.54167 66.7708 4.51562 66.875 4.51562C67.0052 4.51562 67.1224 4.51562 67.2266 4.51562C67.3568 4.51562 67.4479 4.51562 67.5 4.51562C67.5521 4.51562 67.6042 4.51562 67.6562 4.51562C67.7344 4.51562 67.7995 4.51562 67.8516 4.51562H68.0859C68.0859 4.51562 68.099 4.58073 68.125 4.71094C68.1771 4.8151 68.2161 4.94531 68.2422 5.10156C68.2943 5.25781 68.3333 5.41406 68.3594 5.57031C68.4115 5.70052 68.4375 5.81771 68.4375 5.92188C68.5938 6.625 68.8281 7.5625 69.1406 8.73438C69.4531 9.90625 69.8438 11.1823 70.3125 12.5625C70.8073 13.9167 71.3542 15.2969 71.9531 16.7031C72.5781 18.1094 73.2552 19.3854 73.9844 20.5312C74.7396 21.651 75.5339 22.5625 76.3672 23.2656C77.2005 23.9688 78.0729 24.3203 78.9844 24.3203C79.4271 24.3203 79.8307 24.1641 80.1953 23.8516C80.5599 23.5391 80.8724 23.1354 81.1328 22.6406C81.4193 22.1198 81.6536 21.5469 81.8359 20.9219C82.0443 20.2969 82.2135 19.6979 82.3438 19.125C82.5 18.526 82.6042 17.9792 82.6562 17.4844C82.7344 16.9635 82.7734 16.5729 82.7734 16.3125C82.7734 14.2552 82.5521 12.263 82.1094 10.3359C81.6927 8.38281 81.1198 6.44271 80.3906 4.51562C80.2344 4.30729 80 4.11198 79.6875 3.92969C79.375 3.7474 79.1406 3.60417 78.9844 3.5C79.0625 3.31771 79.1667 3.21354 79.2969 3.1875C79.4271 3.16146 79.5703 3.14844 79.7266 3.14844C80.2214 3.14844 80.6641 3.44792 81.0547 4.04688C81.4714 4.64583 81.8359 5.40104 82.1484 6.3125C82.487 7.22396 82.7865 8.22656 83.0469 9.32031C83.3073 10.4141 83.5156 11.4688 83.6719 12.4844C83.8281 13.5 83.9453 14.4115 84.0234 15.2188C84.1016 16.026 84.1406 16.5729 84.1406 16.8594C84.1406 17.6927 84.0625 18.6432 83.9062 19.7109C83.776 20.7526 83.5156 21.7422 83.125 22.6797C82.7344 23.6172 82.1875 24.4115 81.4844 25.0625C80.8073 25.7135 79.9219 26.0391 78.8281 26.0391C77.8385 26.0391 76.9141 25.7266 76.0547 25.1016C75.2214 24.4505 74.4401 23.6302 73.7109 22.6406C73.0078 21.625 72.3438 20.5052 71.7188 19.2812C71.1198 18.0312 70.5599 16.8203 70.0391 15.6484C69.5182 14.4505 69.0365 13.3568 68.5938 12.3672C68.1771 11.3516 67.7865 10.5573 67.4219 9.98438L67.1094 10.6875ZM98.4375 24.3203C98.4375 24.0078 98.4245 23.526 98.3984 22.875C98.3724 22.1979 98.3464 21.4557 98.3203 20.6484C98.3203 19.8151 98.2943 18.9427 98.2422 18.0312C98.2161 17.0938 98.1901 16.2083 98.1641 15.375C98.1641 14.5417 98.151 13.7995 98.125 13.1484C98.099 12.4974 98.0859 12.0156 98.0859 11.7031C98.0859 11.4688 98.0859 11.1693 98.0859 10.8047C98.112 10.4401 98.099 10.1016 98.0469 9.78906C97.9948 9.47656 97.8906 9.20312 97.7344 8.96875C97.5781 8.73438 97.3177 8.61719 96.9531 8.61719C95.9896 8.61719 95.026 8.66927 94.0625 8.77344C93.125 8.85156 92.1875 9.00781 91.25 9.24219C90.3385 9.47656 89.4531 9.80208 88.5938 10.2188C87.7344 10.6094 86.9271 11.1042 86.1719 11.7031C86.0677 11.6771 85.9245 11.5859 85.7422 11.4297C85.5859 11.2474 85.4948 11.1042 85.4688 11C85.3646 10.5833 85.5599 10.1797 86.0547 9.78906C86.5755 9.39844 87.2656 9.03385 88.125 8.69531C89.0104 8.35677 89.987 8.05729 91.0547 7.79688C92.1224 7.53646 93.151 7.3151 94.1406 7.13281C95.1302 6.92448 96.0156 6.76823 96.7969 6.66406C97.6042 6.5599 98.151 6.50781 98.4375 6.50781C98.6719 6.50781 98.8411 6.53385 98.9453 6.58594C99.0755 6.63802 99.2448 6.75521 99.4531 6.9375H107.773C107.773 7.11979 107.669 7.27604 107.461 7.40625C107.279 7.51042 107.057 7.61458 106.797 7.71875C106.536 7.79688 106.289 7.86198 106.055 7.91406C105.82 7.9401 105.664 7.95312 105.586 7.95312C105.404 7.97917 105.065 8.00521 104.57 8.03125C104.076 8.05729 103.555 8.09635 103.008 8.14844C102.487 8.17448 101.979 8.20052 101.484 8.22656C101.016 8.2526 100.677 8.26562 100.469 8.26562C100.286 8.34375 100.104 8.4349 99.9219 8.53906C99.7396 8.64323 99.5833 8.78646 99.4531 8.96875C99.4792 9.09896 99.5052 9.33333 99.5312 9.67188C99.5833 9.98438 99.6224 10.3229 99.6484 10.6875C99.7005 11.026 99.7396 11.3646 99.7656 11.7031C99.7917 12.0156 99.8047 12.237 99.8047 12.3672C99.8047 12.5234 99.8047 12.875 99.8047 13.4219C99.8047 13.9688 99.8047 14.6198 99.8047 15.375C99.8047 16.1042 99.8047 16.8724 99.8047 17.6797C99.8047 18.487 99.8047 19.2552 99.8047 19.9844C99.8047 20.7135 99.8047 21.3516 99.8047 21.8984C99.8047 22.4193 99.8047 22.7708 99.8047 22.9531C99.8047 23.0052 99.8177 23.1484 99.8438 23.3828C99.8698 23.6172 99.8958 23.8776 99.9219 24.1641C99.974 24.4245 100.013 24.6719 100.039 24.9062C100.091 25.1146 100.13 25.2448 100.156 25.2969V25.5312C100.156 25.7396 100.078 25.8828 99.9219 25.9609C99.7917 26.013 99.6354 26.0391 99.4531 26.0391C99.2448 26.0391 99.0755 25.987 98.9453 25.8828C98.8151 25.7526 98.7109 25.5964 98.6328 25.4141C98.5807 25.2318 98.5417 25.0495 98.5156 24.8672C98.4896 24.6589 98.4635 24.4766 98.4375 24.3203ZM109.062 17.1719C109.062 16.5729 109.219 16.0781 109.531 15.6875C109.87 15.2708 110.273 14.9453 110.742 14.7109C111.211 14.4766 111.719 14.3073 112.266 14.2031C112.812 14.099 113.32 14.0469 113.789 14.0469C113.893 14.0469 114.076 14.099 114.336 14.2031C114.596 14.3073 114.766 14.3854 114.844 14.4375V14.4766C114.844 14.5026 114.844 14.5286 114.844 14.5547C114.844 14.7891 114.74 14.9583 114.531 15.0625C114.349 15.1667 114.102 15.2578 113.789 15.3359C113.477 15.388 113.138 15.4401 112.773 15.4922C112.435 15.5443 112.109 15.6354 111.797 15.7656C111.484 15.8958 111.224 16.0781 111.016 16.3125C110.833 16.5469 110.742 16.8724 110.742 17.2891C110.742 17.862 111.016 18.4479 111.562 19.0469C112.109 19.6458 112.799 20.2057 113.633 20.7266C114.492 21.2474 115.443 21.7422 116.484 22.2109C117.526 22.6536 118.542 23.0443 119.531 23.3828C120.521 23.6953 121.419 23.9427 122.227 24.125C123.034 24.2812 123.646 24.3464 124.062 24.3203C124.141 24.3203 124.271 24.2943 124.453 24.2422C124.661 24.1641 124.87 24.0859 125.078 24.0078C125.286 23.9297 125.482 23.8516 125.664 23.7734C125.872 23.6953 126.016 23.6432 126.094 23.6172C126.094 23.5651 126.094 23.4609 126.094 23.3047C126.12 23.1224 126.133 23.0052 126.133 22.9531C126.133 22.6406 126.094 22.3802 126.016 22.1719C125.938 21.9375 125.82 21.7292 125.664 21.5469C125.534 21.3385 125.352 21.1432 125.117 20.9609C124.909 20.7526 124.661 20.5052 124.375 20.2188C124.141 19.9844 123.789 19.6328 123.32 19.1641C122.852 18.6953 122.318 18.1745 121.719 17.6016C121.12 17.0026 120.482 16.3906 119.805 15.7656C119.154 15.1146 118.516 14.5026 117.891 13.9297C117.266 13.3307 116.719 12.8099 116.25 12.3672C115.781 11.8984 115.43 11.5469 115.195 11.3125C114.44 10.349 113.841 9.39844 113.398 8.46094C112.982 7.52344 112.773 6.44271 112.773 5.21875C112.773 4.125 112.982 3.13542 113.398 2.25C113.841 1.36458 114.557 0.635417 115.547 0.0625C115.599 0.0625 115.703 0.0625 115.859 0.0625C116.016 0.0625 116.185 0.0625 116.367 0.0625C116.549 0.0625 116.719 0.0625 116.875 0.0625C117.057 0.0625 117.174 0.0625 117.227 0.0625C117.956 0.0625 118.724 0.205729 119.531 0.492188C120.339 0.752604 121.081 1.13021 121.758 1.625C122.435 2.11979 122.995 2.71875 123.438 3.42188C123.88 4.125 124.102 4.89323 124.102 5.72656C124.102 5.83073 124.089 6 124.062 6.23438C124.036 6.44271 123.919 6.54688 123.711 6.54688C123.32 6.54688 122.969 6.42969 122.656 6.19531C122.37 5.9349 122.083 5.60938 121.797 5.21875C121.536 4.82812 121.276 4.42448 121.016 4.00781C120.755 3.5651 120.456 3.14844 120.117 2.75781C119.805 2.36719 119.427 2.05469 118.984 1.82031C118.568 1.5599 118.086 1.42969 117.539 1.42969C117.122 1.42969 116.706 1.5599 116.289 1.82031C115.872 2.05469 115.508 2.35417 115.195 2.71875C114.883 3.08333 114.622 3.48698 114.414 3.92969C114.232 4.3724 114.141 4.78906 114.141 5.17969C114.141 5.7526 114.219 6.35156 114.375 6.97656C114.531 7.57552 114.753 8.16146 115.039 8.73438C115.326 9.28125 115.651 9.8151 116.016 10.3359C116.406 10.8307 116.81 11.2865 117.227 11.7031L126.445 20.5703C126.836 20.9089 127.161 21.3646 127.422 21.9375C127.708 22.5104 127.852 23.0573 127.852 23.5781C127.852 23.9948 127.76 24.3594 127.578 24.6719C127.396 24.9844 127.161 25.2448 126.875 25.4531C126.589 25.6354 126.25 25.7786 125.859 25.8828C125.495 25.9609 125.117 26 124.727 26H124.375C124.167 25.974 123.841 25.9089 123.398 25.8047C122.956 25.6745 122.5 25.5573 122.031 25.4531C121.562 25.349 121.12 25.2578 120.703 25.1797C120.312 25.0755 120.065 25.0104 119.961 24.9844C119.544 24.8542 118.984 24.6589 118.281 24.3984C117.604 24.112 116.862 23.7865 116.055 23.4219C115.247 23.0312 114.427 22.6016 113.594 22.1328C112.76 21.638 112.005 21.1172 111.328 20.5703C110.677 20.0234 110.13 19.4635 109.688 18.8906C109.271 18.2917 109.062 17.7188 109.062 17.1719ZM130.938 25.1016C130.938 24.8411 131.003 24.5807 131.133 24.3203C131.263 24.0599 131.497 23.9297 131.836 23.9297C132.122 23.9297 132.396 24.0339 132.656 24.2422C132.917 24.4505 133.047 24.6979 133.047 24.9844C133.047 25.349 132.93 25.6224 132.695 25.8047C132.461 25.9609 132.188 26.0391 131.875 26.0391C131.51 26.0391 131.263 25.974 131.133 25.8438C131.003 25.7135 130.938 25.4661 130.938 25.1016ZM135.469 25.6875C135.26 25.4792 135.143 25.2839 135.117 25.1016C135.091 24.9193 135.078 24.7109 135.078 24.4766C135.078 24.3984 135.078 24.2943 135.078 24.1641C135.104 24.0339 135.117 23.9688 135.117 23.9688C135.352 22.6927 135.573 21.4948 135.781 20.375C136.016 19.2552 136.211 18.1615 136.367 17.0938C136.523 16 136.641 14.8932 136.719 13.7734C136.797 12.6536 136.836 11.4427 136.836 10.1406C136.836 9.98438 136.836 9.69792 136.836 9.28125C136.836 8.83854 136.823 8.36979 136.797 7.875C136.797 7.35417 136.797 6.88542 136.797 6.46875C136.797 6.02604 136.797 5.72656 136.797 5.57031C136.771 5.33594 136.654 5.21875 136.445 5.21875C136.263 5.19271 136.107 5.17969 135.977 5.17969C135.586 5.17969 135.247 5.20573 134.961 5.25781C134.701 5.28385 134.466 5.34896 134.258 5.45312C134.049 5.53125 133.867 5.64844 133.711 5.80469C133.529 5.96094 133.333 6.14323 133.125 6.35156C133.047 6.35156 132.93 6.36458 132.773 6.39062C132.591 6.39062 132.474 6.39062 132.422 6.39062C132.214 6.39062 131.992 6.3776 131.758 6.35156C131.497 6.29948 131.367 6.13021 131.367 5.84375C131.367 5.81771 131.38 5.79167 131.406 5.76562C131.406 5.71354 131.406 5.6875 131.406 5.6875C131.797 5.19271 132.174 4.77604 132.539 4.4375C132.878 4.09896 133.242 3.83854 133.633 3.65625C134.023 3.47396 134.466 3.34375 134.961 3.26562C135.456 3.1875 136.029 3.14844 136.68 3.14844C137.122 3.14844 137.461 3.2526 137.695 3.46094C137.956 3.66927 138.138 3.94271 138.242 4.28125C138.372 4.59375 138.451 4.95833 138.477 5.375C138.503 5.76562 138.516 6.15625 138.516 6.54688C138.516 6.72917 138.516 7.01562 138.516 7.40625C138.516 7.77083 138.516 8.1875 138.516 8.65625C138.516 9.125 138.503 9.61979 138.477 10.1406C138.477 10.6615 138.464 11.1562 138.438 11.625C138.438 12.0938 138.424 12.5234 138.398 12.9141C138.398 13.2786 138.398 13.5521 138.398 13.7344H138.867C138.945 13.6302 139.115 13.4479 139.375 13.1875C139.635 12.9271 139.922 12.6536 140.234 12.3672C140.573 12.0807 140.911 11.8333 141.25 11.625C141.615 11.4167 141.953 11.3125 142.266 11.3125C142.682 11.3125 143.073 11.4818 143.438 11.8203C143.828 12.1328 144.167 12.5625 144.453 13.1094C144.766 13.6302 145.039 14.2161 145.273 14.8672C145.534 15.5182 145.742 16.1562 145.898 16.7812C146.055 17.4062 146.172 17.9792 146.25 18.5C146.354 19.0208 146.406 19.4375 146.406 19.75C146.406 20.6094 146.172 21.4167 145.703 22.1719C145.234 22.9271 144.635 23.5911 143.906 24.1641C143.203 24.737 142.409 25.1927 141.523 25.5312C140.664 25.8698 139.844 26.0391 139.062 26.0391C138.724 26.0391 138.411 26.026 138.125 26C137.865 26 137.591 26 137.305 26C137.044 25.974 136.758 25.9349 136.445 25.8828C136.159 25.8307 135.833 25.7656 135.469 25.6875ZM141.914 13.0703C141.133 13.7474 140.443 14.5547 139.844 15.4922C139.245 16.4036 138.737 17.3802 138.32 18.4219C137.904 19.4635 137.591 20.5312 137.383 21.625C137.201 22.7188 137.109 23.7734 137.109 24.7891C137.839 24.7891 138.646 24.6979 139.531 24.5156C140.417 24.3333 141.237 24.0469 141.992 23.6562C142.773 23.2396 143.424 22.7057 143.945 22.0547C144.466 21.3776 144.727 20.5443 144.727 19.5547C144.727 19.0339 144.674 18.4609 144.57 17.8359C144.466 17.1849 144.297 16.5599 144.062 15.9609C143.854 15.3359 143.568 14.763 143.203 14.2422C142.865 13.7214 142.435 13.3307 141.914 13.0703ZM144.922 43.7344C144.766 42.7448 144.635 41.7031 144.531 40.6094C144.427 39.5156 144.336 38.2526 144.258 36.8203C144.258 36.5859 144.271 36.1953 144.297 35.6484C144.297 35.1276 144.323 34.5286 144.375 33.8516C144.427 33.2005 144.505 32.5104 144.609 31.7812C144.714 31.0781 144.844 30.401 145 29.75C145.13 29.125 145.299 28.5651 145.508 28.0703C145.716 27.6016 145.977 27.263 146.289 27.0547V27.3672C146.289 28.1484 146.237 28.9167 146.133 29.6719C146.003 30.4271 145.885 31.1823 145.781 31.9375C145.651 32.7188 145.534 33.5 145.43 34.2812C145.299 35.0625 145.234 35.8438 145.234 36.625C145.234 36.9375 145.26 37.3802 145.312 37.9531C145.339 38.5521 145.391 39.2031 145.469 39.9062C145.547 40.6094 145.664 41.3255 145.82 42.0547C145.977 42.8099 146.185 43.487 146.445 44.0859C146.706 44.6849 147.018 45.1667 147.383 45.5312C147.747 45.9219 148.177 46.1172 148.672 46.1172C149.349 46.1172 150.026 45.8958 150.703 45.4531C151.406 45.0104 152.07 44.4245 152.695 43.6953C153.346 42.9922 153.945 42.1849 154.492 41.2734C155.039 40.388 155.547 39.4896 156.016 38.5781C156.484 37.6667 156.875 36.7943 157.188 35.9609C157.5 35.1536 157.734 34.4505 157.891 33.8516C158.047 32.9922 158.203 32.0807 158.359 31.1172C158.516 30.1797 158.659 29.2031 158.789 28.1875C158.945 27.1979 159.062 26.2083 159.141 25.2188C159.245 24.2292 159.297 23.2396 159.297 22.25C159.297 22.224 159.297 22.1458 159.297 22.0156C159.297 21.8854 159.284 21.7552 159.258 21.625C159.258 21.4688 159.258 21.3255 159.258 21.1953C159.258 21.0651 159.258 20.974 159.258 20.9219C158.893 21.3125 158.503 21.7552 158.086 22.25C157.695 22.7188 157.266 23.1615 156.797 23.5781C156.328 23.9948 155.82 24.3464 155.273 24.6328C154.753 24.9193 154.18 25.0625 153.555 25.0625C153.06 25.0625 152.63 24.9062 152.266 24.5938C151.927 24.2812 151.641 23.9036 151.406 23.4609C151.198 22.9922 151.029 22.4974 150.898 21.9766C150.794 21.4557 150.742 20.987 150.742 20.5703C150.716 20.3359 150.69 19.9193 150.664 19.3203C150.638 18.6953 150.599 18.0443 150.547 17.3672C150.521 16.6641 150.482 16.013 150.43 15.4141C150.404 14.7891 150.391 14.3464 150.391 14.0859L150.039 13.7344C149.857 13.8385 149.622 13.9948 149.336 14.2031C149.049 14.4115 148.737 14.6068 148.398 14.7891C148.086 14.9714 147.773 15.1406 147.461 15.2969C147.148 15.4271 146.875 15.4922 146.641 15.4922C146.328 15.4922 146.081 15.388 145.898 15.1797C145.69 14.9453 145.586 14.6979 145.586 14.4375C145.586 14.3073 145.716 14.125 145.977 13.8906C146.211 13.6562 146.523 13.4219 146.914 13.1875C147.279 12.9271 147.695 12.6667 148.164 12.4062C148.659 12.1458 149.128 11.9115 149.57 11.7031C150.013 11.4948 150.417 11.3255 150.781 11.1953C151.146 11.0391 151.406 10.9609 151.562 10.9609C151.667 10.9609 151.836 10.974 152.07 11C152.305 11.026 152.422 11.1432 152.422 11.3516V20.5703C152.422 20.7266 152.448 20.9609 152.5 21.2734C152.552 21.5599 152.63 21.8594 152.734 22.1719C152.839 22.4844 152.982 22.7578 153.164 22.9922C153.346 23.2005 153.555 23.3047 153.789 23.3047C153.919 23.3047 154.089 23.2656 154.297 23.1875C154.505 23.1094 154.701 23.0182 154.883 22.9141C155.091 22.8099 155.273 22.7057 155.43 22.6016C155.586 22.4714 155.716 22.3542 155.82 22.25C156.706 21.4688 157.513 20.5964 158.242 19.6328C158.997 18.6693 159.557 17.6146 159.922 16.4688C159.948 16.3906 159.987 16.2214 160.039 15.9609C160.117 15.6745 160.182 15.375 160.234 15.0625C160.312 14.724 160.391 14.4115 160.469 14.125C160.547 13.8125 160.586 13.5781 160.586 13.4219C160.612 13.2396 160.625 13.0312 160.625 12.7969C160.651 12.5625 160.69 12.3411 160.742 12.1328C160.794 11.8984 160.885 11.7031 161.016 11.5469C161.146 11.3906 161.354 11.3125 161.641 11.3125C162.031 11.3125 162.24 11.4297 162.266 11.6641C162.318 11.8984 162.344 12.1719 162.344 12.4844C162.344 12.8229 162.318 13.1615 162.266 13.5C162.214 13.8385 162.148 14.1771 162.07 14.5156C162.018 14.8281 161.979 15.1536 161.953 15.4922C161.927 15.8047 161.94 16.1302 161.992 16.4688C161.706 21.3646 161.094 25.7396 160.156 29.5938C159.245 33.4479 158.151 36.6901 156.875 39.3203C155.625 41.9766 154.297 43.9818 152.891 45.3359C151.51 46.6901 150.208 47.3021 148.984 47.1719C148.542 47.1719 148.099 47.0677 147.656 46.8594C147.24 46.6771 146.849 46.4167 146.484 46.0781C146.12 45.7396 145.807 45.362 145.547 44.9453C145.26 44.5547 145.052 44.151 144.922 43.7344ZM164.336 16.3906C164.336 14.4375 164.414 12.5104 164.57 10.6094C164.753 8.70833 165.026 6.79427 165.391 4.86719C165.469 4.55469 165.547 4.30729 165.625 4.125C165.703 3.91667 165.794 3.76042 165.898 3.65625C166.029 3.52604 166.185 3.44792 166.367 3.42188C166.576 3.36979 166.836 3.34375 167.148 3.34375C167.148 3.44792 167.148 3.65625 167.148 3.96875C167.148 4.25521 167.135 4.4375 167.109 4.51562C167.083 4.69792 167.031 5.07552 166.953 5.64844C166.901 6.19531 166.823 6.84635 166.719 7.60156C166.615 8.35677 166.51 9.15104 166.406 9.98438C166.302 10.8177 166.198 11.612 166.094 12.3672C166.016 13.1224 165.938 13.7865 165.859 14.3594C165.781 14.9062 165.742 15.2708 165.742 15.4531V15.7656C165.742 17.0156 165.898 18.1875 166.211 19.2812C166.549 20.349 167.057 21.2865 167.734 22.0938C168.411 22.901 169.245 23.5391 170.234 24.0078C171.224 24.4505 172.383 24.6719 173.711 24.6719C174.492 24.6719 175.26 24.5938 176.016 24.4375C176.797 24.2552 177.565 24.0599 178.32 23.8516C179.076 23.6172 179.818 23.4089 180.547 23.2266C181.302 23.0443 182.057 22.9531 182.812 22.9531H183.125L182.812 23.6172C182.786 23.6172 182.682 23.6562 182.5 23.7344C182.318 23.8125 182.096 23.9167 181.836 24.0469C181.576 24.151 181.315 24.2682 181.055 24.3984C180.794 24.5026 180.573 24.5938 180.391 24.6719C179.271 25.0885 178.138 25.4271 176.992 25.6875C175.872 25.9219 174.701 26.0391 173.477 26.0391C171.914 26.0391 170.56 25.8177 169.414 25.375C168.268 24.9323 167.318 24.2943 166.562 23.4609C165.807 22.6276 165.247 21.625 164.883 20.4531C164.518 19.2552 164.336 17.901 164.336 16.3906ZM192.969 21.2344C192.578 21.7031 192.122 22.1979 191.602 22.7188C191.107 23.2396 190.56 23.7214 189.961 24.1641C189.388 24.6068 188.776 24.9844 188.125 25.2969C187.5 25.5833 186.849 25.7266 186.172 25.7266C184.792 25.7266 184.102 25.0625 184.102 23.7344C184.102 23.1875 184.323 22.4714 184.766 21.5859C185.234 20.6745 185.833 19.724 186.562 18.7344C187.292 17.7448 188.099 16.7943 188.984 15.8828C189.87 14.9453 190.755 14.1771 191.641 13.5781C192.526 12.9531 193.333 12.5625 194.062 12.4062C194.818 12.25 195.43 12.4714 195.898 13.0703C195.898 13.7734 195.846 14.4766 195.742 15.1797C195.638 15.8828 195.534 16.5859 195.43 17.2891C195.326 17.9661 195.221 18.6432 195.117 19.3203C195.013 19.9974 194.961 20.6875 194.961 21.3906C194.961 21.5469 194.974 21.7943 195 22.1328C195.052 22.4453 195.117 22.7708 195.195 23.1094C195.299 23.4219 195.43 23.7083 195.586 23.9688C195.742 24.2031 195.951 24.3203 196.211 24.3203C196.836 24.3203 197.344 24.2422 197.734 24.0859C198.151 23.9297 198.503 23.7474 198.789 23.5391C199.102 23.3047 199.362 23.0443 199.57 22.7578C199.805 22.4714 200.039 22.1849 200.273 21.8984C200.534 21.612 200.82 21.3385 201.133 21.0781C201.445 20.8177 201.849 20.6094 202.344 20.4531C202.344 20.4531 202.344 20.4922 202.344 20.5703C202.344 20.6484 202.344 20.7135 202.344 20.7656C202.344 21.4167 202.148 22.0677 201.758 22.7188C201.367 23.3438 200.872 23.9036 200.273 24.3984C199.674 24.8932 198.997 25.2969 198.242 25.6094C197.513 25.8958 196.797 26.0391 196.094 26.0391C195.495 26.0391 195.013 25.8698 194.648 25.5312C194.284 25.1927 193.984 24.7891 193.75 24.3203C193.542 23.8516 193.385 23.3438 193.281 22.7969C193.177 22.224 193.073 21.7031 192.969 21.2344ZM193.672 16.1172C193.932 15.2578 194.023 14.6719 193.945 14.3594C193.893 14.0469 193.711 13.9297 193.398 14.0078C193.086 14.0599 192.682 14.2812 192.188 14.6719C191.693 15.0365 191.159 15.4922 190.586 16.0391C190.013 16.5599 189.44 17.1458 188.867 17.7969C188.294 18.4479 187.76 19.0729 187.266 19.6719C186.771 20.2448 186.367 20.7656 186.055 21.2344C185.742 21.7031 185.547 22.0417 185.469 22.25C185.312 22.849 185.286 23.3047 185.391 23.6172C185.521 23.9297 185.703 24.151 185.938 24.2812C186.198 24.3854 186.471 24.3984 186.758 24.3203C187.07 24.2422 187.331 24.125 187.539 23.9688C187.982 23.5781 188.542 23.0573 189.219 22.4062C189.896 21.7292 190.547 21.013 191.172 20.2578C191.823 19.5026 192.383 18.7604 192.852 18.0312C193.32 17.276 193.594 16.638 193.672 16.1172ZM203.047 24.6719C203.307 23.6302 203.49 22.6927 203.594 21.8594C203.724 21 203.802 20.1667 203.828 19.3594C203.88 18.5521 203.893 17.7057 203.867 16.8203C203.867 15.9349 203.867 14.9323 203.867 13.8125C203.451 13.8125 203.138 13.8385 202.93 13.8906C202.747 13.9427 202.617 14.0078 202.539 14.0859C202.461 14.138 202.409 14.2031 202.383 14.2812C202.357 14.3594 202.305 14.4375 202.227 14.5156C202.174 14.5677 202.057 14.6198 201.875 14.6719C201.693 14.724 201.406 14.75 201.016 14.75C200.781 14.75 200.612 14.6589 200.508 14.4766C200.404 14.2943 200.352 14.0859 200.352 13.8516C200.352 13.6432 200.495 13.4219 200.781 13.1875C201.042 12.9531 201.354 12.7188 201.719 12.4844C202.109 12.25 202.5 12.0547 202.891 11.8984C203.307 11.7422 203.659 11.6641 203.945 11.6641C204.049 11.6641 204.193 11.7161 204.375 11.8203C204.583 11.8984 204.779 12.0156 204.961 12.1719C205.143 12.3021 205.286 12.4453 205.391 12.6016C205.521 12.7578 205.586 12.9141 205.586 13.0703V18.5C205.846 18.1094 206.263 17.5755 206.836 16.8984C207.409 16.2214 208.047 15.5573 208.75 14.9062C209.453 14.2292 210.169 13.6432 210.898 13.1484C211.628 12.6536 212.279 12.4062 212.852 12.4062C213.633 12.4062 214.18 12.6667 214.492 13.1875C214.805 13.6823 214.961 14.3073 214.961 15.0625C214.648 15.0625 214.401 15.0104 214.219 14.9062C214.036 14.8021 213.867 14.6849 213.711 14.5547C213.581 14.4245 213.438 14.3203 213.281 14.2422C213.125 14.138 212.917 14.0859 212.656 14.0859C211.823 14.2422 211.042 14.6589 210.312 15.3359C209.583 16.013 208.906 16.8073 208.281 17.7188C207.682 18.6302 207.135 19.5938 206.641 20.6094C206.172 21.625 205.755 22.5495 205.391 23.3828C205.026 24.2161 204.727 24.8932 204.492 25.4141C204.284 25.9349 204.154 26.1432 204.102 26.0391C203.841 26.0391 203.594 25.9219 203.359 25.6875C203.151 25.4271 203.047 25.1276 203.047 24.7891V24.6719ZM225.312 21.2344C224.922 21.7031 224.466 22.1979 223.945 22.7188C223.451 23.2396 222.904 23.7214 222.305 24.1641C221.732 24.6068 221.12 24.9844 220.469 25.2969C219.844 25.5833 219.193 25.7266 218.516 25.7266C217.135 25.7266 216.445 25.0625 216.445 23.7344C216.445 23.1875 216.667 22.4714 217.109 21.5859C217.578 20.6745 218.177 19.724 218.906 18.7344C219.635 17.7448 220.443 16.7943 221.328 15.8828C222.214 14.9453 223.099 14.1771 223.984 13.5781C224.87 12.9531 225.677 12.5625 226.406 12.4062C227.161 12.25 227.773 12.4714 228.242 13.0703C228.242 13.7734 228.19 14.4766 228.086 15.1797C227.982 15.8828 227.878 16.5859 227.773 17.2891C227.669 17.9661 227.565 18.6432 227.461 19.3203C227.357 19.9974 227.305 20.6875 227.305 21.3906C227.305 21.5469 227.318 21.7943 227.344 22.1328C227.396 22.4453 227.461 22.7708 227.539 23.1094C227.643 23.4219 227.773 23.7083 227.93 23.9688C228.086 24.2031 228.294 24.3203 228.555 24.3203C229.18 24.3203 229.688 24.2422 230.078 24.0859C230.495 23.9297 230.846 23.7474 231.133 23.5391C231.445 23.3047 231.706 23.0443 231.914 22.7578C232.148 22.4714 232.383 22.1849 232.617 21.8984C232.878 21.612 233.164 21.3385 233.477 21.0781C233.789 20.8177 234.193 20.6094 234.688 20.4531C234.688 20.4531 234.688 20.4922 234.688 20.5703C234.688 20.6484 234.688 20.7135 234.688 20.7656C234.688 21.4167 234.492 22.0677 234.102 22.7188C233.711 23.3438 233.216 23.9036 232.617 24.3984C232.018 24.8932 231.341 25.2969 230.586 25.6094C229.857 25.8958 229.141 26.0391 228.438 26.0391C227.839 26.0391 227.357 25.8698 226.992 25.5312C226.628 25.1927 226.328 24.7891 226.094 24.3203C225.885 23.8516 225.729 23.3438 225.625 22.7969C225.521 22.224 225.417 21.7031 225.312 21.2344ZM226.016 16.1172C226.276 15.2578 226.367 14.6719 226.289 14.3594C226.237 14.0469 226.055 13.9297 225.742 14.0078C225.43 14.0599 225.026 14.2812 224.531 14.6719C224.036 15.0365 223.503 15.4922 222.93 16.0391C222.357 16.5599 221.784 17.1458 221.211 17.7969C220.638 18.4479 220.104 19.0729 219.609 19.6719C219.115 20.2448 218.711 20.7656 218.398 21.2344C218.086 21.7031 217.891 22.0417 217.812 22.25C217.656 22.849 217.63 23.3047 217.734 23.6172C217.865 23.9297 218.047 24.151 218.281 24.2812C218.542 24.3854 218.815 24.3984 219.102 24.3203C219.414 24.2422 219.674 24.125 219.883 23.9688C220.326 23.5781 220.885 23.0573 221.562 22.4062C222.24 21.7292 222.891 21.013 223.516 20.2578C224.167 19.5026 224.727 18.7604 225.195 18.0312C225.664 17.276 225.938 16.638 226.016 16.1172ZM234.492 24.5547C234.492 23.1484 234.596 21.7682 234.805 20.4141C235.013 19.0339 235.247 17.6667 235.508 16.3125C235.794 14.9323 236.042 13.5651 236.25 12.2109C236.458 10.8568 236.562 9.48958 236.562 8.10938C236.562 8.03125 236.562 7.90104 236.562 7.71875C236.562 7.53646 236.549 7.35417 236.523 7.17188C236.523 6.96354 236.523 6.76823 236.523 6.58594C236.523 6.40365 236.523 6.28646 236.523 6.23438C236.549 5.94792 236.497 5.7526 236.367 5.64844C236.237 5.54427 236.068 5.49219 235.859 5.49219C235.833 5.49219 235.781 5.50521 235.703 5.53125C235.625 5.55729 235.56 5.57031 235.508 5.57031C235.404 5.70052 235.312 5.79167 235.234 5.84375C235.156 5.89583 235.078 5.94792 235 6C234.922 6.05208 234.831 6.10417 234.727 6.15625C234.622 6.20833 234.505 6.28646 234.375 6.39062C234.193 6.54688 233.971 6.66406 233.711 6.74219C233.477 6.79427 233.242 6.82031 233.008 6.82031V5.72656L235.508 3.5C235.664 3.34375 235.833 3.2526 236.016 3.22656C236.198 3.17448 236.38 3.14844 236.562 3.14844C237.005 3.14844 237.344 3.34375 237.578 3.73438C237.812 4.09896 237.982 4.54167 238.086 5.0625C238.216 5.55729 238.281 6.0651 238.281 6.58594C238.281 7.08073 238.281 7.44531 238.281 7.67969C238.281 7.78385 238.281 7.92708 238.281 8.10938C238.281 8.29167 238.281 8.47396 238.281 8.65625C238.281 8.8125 238.281 8.95573 238.281 9.08594C238.281 9.21615 238.281 9.29427 238.281 9.32031C238.255 9.42448 238.203 9.6849 238.125 10.1016C238.073 10.4922 237.995 10.9609 237.891 11.5078C237.812 12.0286 237.721 12.6016 237.617 13.2266C237.513 13.8255 237.409 14.3984 237.305 14.9453C237.201 15.4661 237.109 15.9349 237.031 16.3516C236.979 16.7422 236.94 17.0156 236.914 17.1719V17.2891V17.4844C236.966 17.4583 237.031 17.4062 237.109 17.3281C237.188 17.25 237.227 17.1979 237.227 17.1719C237.279 17.0938 237.383 16.9245 237.539 16.6641C237.721 16.3776 237.904 16.0781 238.086 15.7656C238.268 15.4531 238.438 15.1667 238.594 14.9062C238.776 14.6458 238.893 14.4896 238.945 14.4375C239.049 14.3073 239.219 14.112 239.453 13.8516C239.714 13.5911 239.987 13.3177 240.273 13.0312C240.586 12.7448 240.859 12.4844 241.094 12.25C241.354 11.9896 241.549 11.8073 241.68 11.7031C241.706 11.7031 241.81 11.7031 241.992 11.7031C242.174 11.6771 242.292 11.6641 242.344 11.6641C242.943 11.6641 243.346 11.9505 243.555 12.5234C243.789 13.0703 243.919 13.7734 243.945 14.6328C243.997 15.4661 243.984 16.3776 243.906 17.3672C243.828 18.3307 243.802 19.2292 243.828 20.0625C243.854 20.8958 243.971 21.599 244.18 22.1719C244.388 22.7188 244.805 22.9922 245.43 22.9922C245.716 22.9922 245.964 22.9141 246.172 22.7578C246.38 22.6016 246.589 22.4323 246.797 22.25C247.005 22.0677 247.214 21.8984 247.422 21.7422C247.656 21.5859 247.93 21.5078 248.242 21.5078C248.242 21.8984 248.138 22.2891 247.93 22.6797C247.721 23.0703 247.461 23.4219 247.148 23.7344C246.836 24.0469 246.471 24.2943 246.055 24.4766C245.664 24.6328 245.286 24.7109 244.922 24.7109C244.167 24.7109 243.607 24.4766 243.242 24.0078C242.904 23.5391 242.669 22.9792 242.539 22.3281C242.435 21.6771 242.383 21 242.383 20.2969C242.383 19.5938 242.37 18.9948 242.344 18.5C242.318 18.1875 242.292 17.7839 242.266 17.2891C242.24 16.7682 242.201 16.2734 242.148 15.8047C242.122 15.3359 242.096 14.9323 242.07 14.5938C242.044 14.2292 242.031 14.0469 242.031 14.0469L241.68 13.7344C240.977 14.3594 240.352 15.0234 239.805 15.7266C239.258 16.4036 238.789 17.1328 238.398 17.9141C238.008 18.6693 237.656 19.4766 237.344 20.3359C237.057 21.1693 236.784 22.0417 236.523 22.9531C236.445 23.2656 236.393 23.5651 236.367 23.8516C236.367 24.112 236.341 24.3724 236.289 24.6328C236.237 24.8672 236.159 25.1016 236.055 25.3359C235.951 25.5443 235.768 25.7656 235.508 26C235.013 25.7656 234.714 25.5573 234.609 25.375C234.531 25.1927 234.492 24.9193 234.492 24.5547ZM246.68 25.6875C246.862 25.401 247.07 25.1276 247.305 24.8672C247.565 24.5807 247.839 24.3464 248.125 24.1641C248.411 23.9557 248.724 23.7995 249.062 23.6953C249.401 23.5911 249.753 23.5651 250.117 23.6172C251.888 23.5391 253.607 23.4479 255.273 23.3438C256.966 23.2396 258.633 23.1224 260.273 22.9922C261.914 22.862 263.555 22.7188 265.195 22.5625C266.836 22.4062 268.503 22.1979 270.195 21.9375C271.055 21.8073 271.94 21.651 272.852 21.4688C273.763 21.2604 274.674 21.0651 275.586 20.8828C276.523 20.7005 277.435 20.5443 278.32 20.4141C279.232 20.2839 280.117 20.2188 280.977 20.2188C281.055 20.2188 281.172 20.2448 281.328 20.2969C281.484 20.349 281.628 20.4271 281.758 20.5312C281.914 20.6354 282.031 20.7526 282.109 20.8828C282.214 20.987 282.227 21.1042 282.148 21.2344C282.018 21.5729 281.823 21.8333 281.562 22.0156C281.302 22.1979 281.003 22.3151 280.664 22.3672C280.352 22.4193 280.026 22.4323 279.688 22.4062C279.349 22.3802 279.036 22.3281 278.75 22.25L258.281 24.6719H256.914C256.576 24.6719 256.12 24.6979 255.547 24.75C255 24.776 254.453 24.8151 253.906 24.8672C253.385 24.8932 252.917 24.9193 252.5 24.9453C252.083 24.9714 251.849 24.9844 251.797 24.9844C251.693 25.0104 251.458 25.0755 251.094 25.1797C250.729 25.2578 250.339 25.362 249.922 25.4922C249.505 25.5964 249.102 25.7005 248.711 25.8047C248.346 25.9089 248.125 25.974 248.047 26C248.021 26 247.969 26 247.891 26C247.812 26.026 247.747 26.0391 247.695 26.0391C247.487 26.0391 247.318 26.026 247.188 26C247.057 25.9479 246.888 25.8438 246.68 25.6875ZM283.828 19.3594C283.828 18.6042 283.906 17.7578 284.062 16.8203C284.245 15.8828 284.492 14.9453 284.805 14.0078C285.143 13.0443 285.56 12.1198 286.055 11.2344C286.576 10.349 287.161 9.55469 287.812 8.85156C288.49 8.14844 289.232 7.58854 290.039 7.17188C290.846 6.75521 291.732 6.54688 292.695 6.54688C293.529 6.54688 294.297 6.74219 295 7.13281C295.703 7.4974 296.341 7.97917 296.914 8.57812C297.513 9.15104 298.034 9.82812 298.477 10.6094C298.919 11.3906 299.297 12.1979 299.609 13.0312C299.922 13.8385 300.156 14.6458 300.312 15.4531C300.495 16.2344 300.586 16.9505 300.586 17.6016C300.586 18.513 300.43 19.3594 300.117 20.1406C299.805 20.9219 299.375 21.625 298.828 22.25C298.307 22.875 297.682 23.4219 296.953 23.8906C296.25 24.3594 295.495 24.763 294.688 25.1016C293.88 25.4141 293.047 25.6484 292.188 25.8047C291.354 25.9609 290.521 26.0391 289.688 26.0391C288.568 26.0391 287.63 25.8828 286.875 25.5703C286.146 25.2578 285.547 24.8151 285.078 24.2422C284.635 23.6432 284.31 22.9401 284.102 22.1328C283.919 21.2995 283.828 20.375 283.828 19.3594ZM285.195 20.2188C285.195 20.9479 285.312 21.5859 285.547 22.1328C285.781 22.6536 286.107 23.0833 286.523 23.4219C286.94 23.7344 287.435 23.9688 288.008 24.125C288.581 24.2552 289.219 24.3203 289.922 24.3203C291.016 24.3203 292.122 24.2031 293.242 23.9688C294.362 23.7083 295.365 23.3047 296.25 22.7578C297.135 22.1849 297.852 21.4688 298.398 20.6094C298.971 19.724 299.258 18.6562 299.258 17.4062C299.258 16.625 299.102 15.6875 298.789 14.5938C298.503 13.5 298.086 12.4583 297.539 11.4688C296.992 10.4792 296.315 9.64583 295.508 8.96875C294.727 8.26562 293.854 7.91406 292.891 7.91406C292.448 7.91406 292.07 7.9401 291.758 7.99219C291.471 8.01823 291.107 8.10938 290.664 8.26562V8.46094V8.61719C290.664 8.64323 290.677 8.70833 290.703 8.8125C290.755 8.91667 290.807 9.03385 290.859 9.16406C290.911 9.26823 290.951 9.3724 290.977 9.47656C291.003 9.58073 291.016 9.64583 291.016 9.67188C291.016 9.90625 290.951 10.0885 290.82 10.2188C290.69 10.3229 290.534 10.401 290.352 10.4531C290.195 10.5052 290.013 10.5443 289.805 10.5703C289.622 10.5964 289.453 10.6354 289.297 10.6875C288.438 11.0521 287.734 11.599 287.188 12.3281C286.667 13.0573 286.25 13.8776 285.938 14.7891C285.651 15.6745 285.456 16.599 285.352 17.5625C285.247 18.526 285.195 19.4115 285.195 20.2188Z" fill="#5C3E00"/>
</svg>
